<svg xmlns="http://www.w3.org/2000/svg" viewBox="0 0 24 24">
  <path d="M12,2C6.477,2,2,6.477,2,12c0,5.523,4.477,10,10,10s10-4.477,10-10C22,6.477,17.523,2,12,2z M12,4 c3.813,0,6.997,2.669,7.798,6.24c0.081,0.359-0.227,0.687-0.588,0.614l-3.481-0.706c-0.348-0.071-0.514-0.472-0.317-0.767 l0.975-1.463C15.293,6.741,13.735,6,12,6C9.393,6,7.189,7.669,6.365,9.993c-0.167,0.47-0.649,0.746-1.138,0.647l0,0 c-0.593-0.12-0.959-0.74-0.757-1.31C5.567,6.226,8.519,4,12,4z M12,20c-3.813,0-6.997-2.669-7.798-6.24 c-0.081-0.359,0.227-0.687,0.588-0.614l3.481,0.706c0.348,0.071,0.514,0.472,0.317,0.767l-0.975,1.463 C8.707,17.259,10.265,18,12,18c2.607,0,4.811-1.669,5.635-3.993c0.167-0.47,0.649-0.746,1.138-0.647l0,0 c0.593,0.12,0.959,0.74,0.757,1.31C18.433,17.774,15.481,20,12,20z" fill="#009999" />
</svg>