<svg xmlns="http://www.w3.org/2000/svg" viewBox="0 0 24 24">
  <path d="M11.984375 2.9863281 A 1.0001 1.0001 0 0 0 11.839844 3L5 3C3.9069372 3 3 3.9069372 3 5L3 11.832031 A 1.0001 1.0001 0 0 0 3 12.158203L3 19C3 20.093063 3.9069372 21 5 21L11.832031 21 A 1.0001 1.0001 0 0 0 12.158203 21L14.824219 21 A 1.0001 1.0001 0 0 0 15.152344 21L19 21C20.093063 21 21 20.093063 21 19L21 15.126953 A 1.0001 1.0001 0 0 0 21 14.851562L21 12.167969 A 1.0001 1.0001 0 0 0 21 11.841797L21 5C21 3.9069372 20.093063 3 19 3L12.154297 3 A 1.0001 1.0001 0 0 0 11.984375 2.9863281 z M 13 5L19 5L19 11L17.146484 11 A 1.0001 1.0001 0 0 0 16.980469 10.990234 A 1.0001 1.0001 0 0 0 16.869141 11L13 11L13 5 z M 5 13L8 13L11 13L11 16L11 16.847656 A 1.0001 1.0001 0 0 0 11 17.179688L11 19L8 19L5 19L5 16L5 13 z M 5 16 A 1 1 0 0 0 6 17 A 1 1 0 0 0 7 16 A 1 1 0 0 0 6 15 A 1 1 0 0 0 5 16 z M 8 19 A 1 1 0 0 0 9 18 A 1 1 0 0 0 8 17 A 1 1 0 0 0 7 18 A 1 1 0 0 0 8 19 z M 11 16 A 1 1 0 0 0 10 15 A 1 1 0 0 0 9 16 A 1 1 0 0 0 10 17 A 1 1 0 0 0 11 16 z M 8 13 A 1 1 0 0 0 7 14 A 1 1 0 0 0 8 15 A 1 1 0 0 0 9 14 A 1 1 0 0 0 8 13 z M 13 13L14.585938 13L13 14.585938L13 13 z M 17.414062 13L19 13L19 14.585938L14.585938 19L13 19L13 17.414062L17.414062 13 z M 19 17.414062L19 19L17.414062 19L19 17.414062 z" fill="#FFFFFF" />
</svg>