<svg xmlns="http://www.w3.org/2000/svg" viewBox="0 0 24 24">
  <path d="M12 1C8.6761905 1 6 3.6761905 6 7L6 9.7207031C4.7585397 11.130211 4 12.97425 4 15C4 19.418 7.582 23 12 23C16.418 23 20 19.418 20 15C20 12.97425 19.24146 11.130211 18 9.7207031L18 7C18 3.6761905 15.32381 1 12 1 z M 12 3C14.27619 3 16 4.7238095 16 7L16 8.0800781C14.822119 7.3974831 13.459229 7 12 7C10.540771 7 9.1778813 7.3974831 8 8.0800781L8 7C8 4.7238095 9.7238095 3 12 3 z M 12 9C15.314 9 18 11.686 18 15C18 18.314 15.314 21 12 21C8.686 21 6 18.314 6 15C6 11.686 8.686 9 12 9 z M 12 12C10.9 12 10 12.9 10 14C10 14.735 10.406 15.372703 11 15.720703L11 19L13 19L13 15.720703C13.594 15.372703 14 14.735 14 14C14 12.9 13.1 12 12 12 z" fill="#009999" />
</svg>