<svg xmlns="http://www.w3.org/2000/svg" viewBox="0 0 24 24">
  <path d="M8.71875 5C6.523438 5 4.308594 6.171875 4.21875 6.21875L3.5 6.625L2.3125 16.84375L2 19.53125L4.46875 18.46875C4.492188 18.457031 6.710938 17.5625 8.75 17.5625C9.617188 17.5625 10.800781 18.132813 11.15625 18.34375L12 18.90625L12.8125 18.375C13.167969 18.160156 14.378906 17.53125 15.25 17.53125C17.277344 17.53125 19.519531 18.464844 19.53125 18.46875L22 19.53125L20.53125 6.625L19.78125 6.21875C19.6875 6.167969 17.476563 5 15.28125 5C14.472656 5 13.289063 5.167969 12 5.84375C10.710938 5.167969 9.53125 5 8.71875 5 Z M 8.71875 6.96875C9.378906 6.96875 10.378906 7.125 11.46875 7.8125L12 8.125L12.53125 7.8125C13.621094 7.125 14.621094 6.96875 15.28125 6.96875C16.667969 6.96875 18.175781 7.628906 18.6875 7.875L19.6875 16.4375C18.78125 16.121094 16.988281 15.59375 15.25 15.59375C13.945313 15.59375 12.554688 16.257813 12 16.5625C11.476563 16.273438 10.066406 15.59375 8.75 15.59375C7.015625 15.59375 5.226563 16.117188 4.3125 16.4375L5.3125 7.875C5.960938 7.558594 7.441406 6.96875 8.71875 6.96875 Z M 8.71875 7.96875C7.90625 7.96875 6.925781 8.285156 6.25 8.5625L5.5 15.03125C6.445313 14.789063 7.632813 14.59375 8.78125 14.59375C10.011719 14.59375 11.265625 15.066406 12.03125 15.4375C12.851563 15.039063 14.070313 14.59375 15.28125 14.59375C15.507813 14.59375 15.710938 14.609375 15.9375 14.625L15.21875 7.96875C14.691406 7.984375 13.898438 8.128906 13.0625 8.65625L12.03125 9.3125L10.96875 8.65625C10.082031 8.097656 9.246094 7.96875 8.71875 7.96875Z" fill="#FFFFFF" />
</svg>