<svg xmlns="http://www.w3.org/2000/svg" viewBox="0 0 24 24">
  <path d="M12 2C6.486 2 2 6.486 2 12C2 17.514 6.486 22 12 22C12.37 22 12.73375 21.974547 13.09375 21.935547L12.251953 21.09375C11.097953 19.93975 11.097953 18.06125 12.251953 16.90625L14.361328 14.798828C15.140328 14.017828 16.304266 13.784984 17.322266 14.208984C18.112266 14.535984 18.680437 15.204 18.898438 16L21.140625 16C21.681625 14.772 22 13.425 22 12C22 6.486 17.514 2 12 2 z M 12 6C12.552 6 13 6.448 13 7L13 12C13 12.265 12.895031 12.520031 12.707031 12.707031L9.4140625 16C9.0240625 16.39 8.391 16.39 8 16C7.609 15.609 7.609 14.975937 8 14.585938L11 11.585938L11 7C11 6.448 11.448 6 12 6 z M 16.361328 16.003906C16.159238 15.979877 15.944891 16.042188 15.775391 16.210938L13.664062 18.320312C13.289062 18.695313 13.289062 19.302734 13.664062 19.677734L15.775391 21.787109C16.227391 22.239109 17 21.92025 17 21.28125L17 20L19 20C20.668484 20 22 21.331516 22 23L22 24L23 24 A 1.0001 1.0001 0 0 0 23.910156 22.558594C23.674182 20.02422 21.593221 18 19 18L17 18L17 16.71875C17 16.319375 16.698145 16.043955 16.361328 16.003906 z" fill="#FFFFFF" />
</svg>