<svg xmlns="http://www.w3.org/2000/svg" viewBox="0 0 24 24">
  <path d="M19,3h-4.184C14.403,1.837,13.304,1,12,1S9.597,1.837,9.184,3H5C3.895,3,3,3.895,3,5v14c0,1.105,0.895,2,2,2h14 c1.105,0,2-0.895,2-2V5C21,3.895,20.105,3,19,3z M12,3c0.552,0,1,0.448,1,1s-0.448,1-1,1s-1-0.448-1-1S11.448,3,12,3z M12,8 c1.133,0,2,0.867,2,2c0,1.133-0.867,2-2,2s-2-0.867-2-2C10,8.867,10.867,8,12,8z M15.5,16h-7C8.224,16,8,15.776,8,15.5v-0.283 C8,13.909,9.815,13,12,13s4,0.909,4,2.217V15.5C16,15.776,15.776,16,15.5,16z" fill="#009999" />
</svg>