<svg xmlns="http://www.w3.org/2000/svg" viewBox="0 0 24 24">
  <path d="M6 2C4.9 2 4 2.9 4 4L4 20C4 21.1 4.9 22 6 22L18 22C19.1 22 20 21.1 20 20L20 4C20 2.9 19.1 2 18 2L6 2 z M 12 6.9921875C12.145 6.9921875 12.290391 7.0453906 12.400391 7.1503906L15.900391 10.470703C16.040391 10.600703 16.020391 10.790391 15.900391 10.900391L15.900391 10.910156C15.860391 10.960156 15.790938 11 15.710938 11L13 11L13 11.009766L13 15C13 15.55 12.55 16 12 16C11.45 16 11 15.55 11 15L11 11.009766L11 11L8.2890625 11C8.2090625 11 8.1396094 10.960156 8.0996094 10.910156L8.0996094 10.900391C7.9796094 10.790391 7.9596094 10.600703 8.0996094 10.470703L11.599609 7.1503906C11.709609 7.0453906 11.855 6.9921875 12 6.9921875 z" fill="#FFFFFF" />
</svg>