<svg xmlns="http://www.w3.org/2000/svg" viewBox="0 0 24 24">
  <path d="M7 2C6.448 2 6 2.448 6 3L6 5C6 5.552 6.448 6 7 6L17 6C17.552 6 18 5.552 18 5L18 3C18 2.448 17.552 2 17 2L7 2 z M 5 8C3.35 8 2 9.35 2 11L2 15C2 16.105 2.895 17 4 17L6 17L6 19C6 20.105 6.895 21 8 21L16 21C17.105 21 18 20.105 18 19L18 17L20 17C21.105 17 22 16.105 22 15L22 11C22 9.35 20.65 8 19 8L5 8 z M 19 10C19.6 10 20 10.4 20 11C20 11.6 19.6 12 19 12C18.4 12 18 11.6 18 11C18 10.4 18.4 10 19 10 z M 8.5 14L15.5 14C15.776 14 16 14.224 16 14.5L16 18.5C16 18.776 15.776 19 15.5 19L8.5 19C8.224 19 8 18.776 8 18.5L8 14.5C8 14.224 8.224 14 8.5 14 z" fill="#FFFFFF" />
</svg>