<svg xmlns="http://www.w3.org/2000/svg" viewBox="0 0 24 24">
  <path d="M12 3C9.8027056 3 8 4.8027056 8 7C8 9.1972944 9.8027056 11 12 11C14.197294 11 16 9.1972944 16 7C16 4.8027056 14.197294 3 12 3 z M 12 5C13.116414 5 14 5.8835859 14 7C14 8.1164141 13.116414 9 12 9C10.883586 9 10 8.1164141 10 7C10 5.8835859 10.883586 5 12 5 z M 12 14C10.255047 14 8.1871638 14.409783 6.4492188 15.095703C5.5802462 15.438663 4.7946961 15.84605 4.1660156 16.369141C3.5373351 16.892231 3 17.599384 3 18.5L3 21L21 21L21 20L21 18.5C21 17.599384 20.462665 16.892231 19.833984 16.369141C19.205304 15.84605 18.419754 15.438663 17.550781 15.095703C15.812836 14.409783 13.744953 14 12 14 z M 12 16C13.414047 16 15.346055 16.373999 16.818359 16.955078C17.554512 17.245618 18.176961 17.591965 18.554688 17.90625C18.932412 18.220535 19 18.434616 19 18.5L19 19L5 19L5 18.5C5 18.434616 5.0675867 18.220535 5.4453125 17.90625C5.8230383 17.591965 6.4454882 17.245618 7.1816406 16.955078C8.6539455 16.373999 10.585953 16 12 16 z" fill="#009999" />
</svg>